<svg width="32" height="31" viewBox="0 0 32 31" fill="none" xmlns="http://www.w3.org/2000/svg">
<path d="M22.6904 15.3735C24.1214 13.7794 25 11.6801 25 9.375C25 4.41263 20.9624 0.375 16 0.375C11.0376 0.375 7 4.41263 7 9.375C7 14.3374 11.0376 18.375 16 18.375C17.7494 18.375 19.3784 17.8654 20.7621 16.998C25.6559 18.8419 29.0252 23.3205 29.4539 28.5H2.54725C2.83862 25.0136 4.47437 21.7624 7.135 19.4426C7.60413 19.0343 7.6525 18.3244 7.24412 17.8552C6.83687 17.3873 6.12588 17.3377 5.65675 17.7461C2.21988 20.7409 0.25 25.0699 0.25 29.625C0.25 30.2471 0.754 30.75 1.375 30.75H30.625C31.2471 30.75 31.75 30.2471 31.75 29.625C31.75 23.4533 28.1725 17.9419 22.6904 15.3735ZM9.25 9.375C9.25 5.65238 12.2774 2.625 16 2.625C19.7226 2.625 22.75 5.65238 22.75 9.375C22.75 13.0976 19.7226 16.125 16 16.125C12.2774 16.125 9.25 13.0976 9.25 9.375Z" fill="black"/>
</svg>
